<svg data-test="IconAdvantageFastDelivery" viewBox="0 0 44 44" xmlns="http://www.w3.org/2000/svg"><path d="M43.2844 20.9967C42.827 20.4515 42.203 20.0972 41.4876 19.9648L41.1517 15.4044C41.4831 15.4012 41.7658 15.1625 41.8235 14.8353L41.9531 14.1005C42.092 13.3127 41.8983 12.5352 41.4216 11.9672C40.9455 11.3999 40.2485 11.0873 39.4587 11.0873H34.401L34.6472 9.69128C34.717 9.29478 34.6158 8.89884 34.3696 8.6053C34.1256 8.31465 33.759 8.14795 33.3635 8.14795H8.46693C7.73068 8.14795 7.05295 8.7207 6.92397 9.45211L4.72133 21.9446C4.65533 22.3193 4.90549 22.6766 5.28018 22.7426C5.32057 22.7497 5.36079 22.7532 5.40058 22.7532C5.7286 22.7532 6.01933 22.518 6.07816 22.1838L8.28093 9.69128C8.29545 9.609 8.40137 9.52565 8.4668 9.52565L33.2772 9.52578L31.0874 21.9446C31.0214 22.3193 31.2715 22.6766 31.6463 22.7426C32.0205 22.8085 32.3783 22.5585 32.4443 22.1838L32.6031 21.2832H40.8416C40.8419 21.2832 40.8422 21.2832 40.8425 21.2832C40.8429 21.2832 40.8432 21.2832 40.8435 21.2832C41.4129 21.2833 41.9049 21.496 42.229 21.8821C42.452 22.1479 42.5821 22.4788 42.6134 22.8448H40.3249C39.9906 22.8448 39.7046 23.0848 39.6464 23.4141L39.3873 24.8838C39.2829 25.4759 39.4304 26.0626 39.7919 26.4935C40.1483 26.9184 40.6895 27.1621 41.2763 27.1621H41.925L41.3905 30.1933H39.5716C39.4519 29.587 39.1898 29.0294 38.7928 28.5563C38.0881 27.7164 37.0512 27.254 35.8733 27.254C33.9844 27.254 32.1621 28.4898 31.3091 30.1934H31.032L31.9261 25.1232C31.9921 24.7485 31.742 24.3911 31.3672 24.3251C30.9927 24.259 30.6352 24.5092 30.5692 24.884L29.633 30.1935H16.8797C16.76 29.5872 16.4979 29.0296 16.1008 28.5564C15.3962 27.7166 14.3593 27.2542 13.1813 27.2542C11.2925 27.2542 9.47013 28.4899 8.61703 30.1935L4.66581 30.1935L4.94115 28.632H8.03742C8.41784 28.632 8.72634 28.3235 8.72634 27.9431C8.72634 27.5626 8.41796 27.2541 8.03742 27.2541H0.688963C0.308513 27.2541 0 27.5625 0 27.9431C0 28.3235 0.308432 28.632 0.688963 28.632H3.54218L3.29597 30.028C3.2261 30.4245 3.32733 30.8205 3.57363 31.114C3.81752 31.4047 4.18421 31.5714 4.5797 31.5714H8.16968C7.98293 32.7401 8.26359 33.841 8.96614 34.6782C9.67083 35.518 10.7077 35.9804 11.8857 35.9804C14.2304 35.9804 16.4736 34.0768 16.8862 31.7368C16.896 31.6814 16.9036 31.6263 16.9113 31.5713H30.8616C30.6748 32.7399 30.9555 33.8408 31.6581 34.678C32.3628 35.5179 33.3996 35.9804 34.5777 35.9804C36.9224 35.9804 39.1656 34.0767 39.5782 31.7368C39.5879 31.6813 39.5956 31.6262 39.6033 31.5712H41.9688C42.3032 31.5712 42.5892 31.3312 42.6472 31.0019L43.943 23.6534C44.1188 22.6559 43.885 21.7124 43.2844 20.9967ZM32.8462 19.9056L33.6399 15.4047H39.7703L40.1019 19.9056H32.8462ZM40.5961 13.8613L40.5669 14.0268H33.8827L34.1581 12.4652H39.4587C39.8341 12.4652 40.1563 12.603 40.366 12.8529C40.5834 13.1119 40.6652 13.4699 40.5961 13.8613ZM15.5294 31.4978C15.2275 33.2099 13.5929 34.6027 11.8857 34.6027C11.122 34.6027 10.46 34.315 10.0216 33.7926C9.57064 33.2551 9.39872 32.5252 9.5377 31.7371C9.8396 30.025 11.4741 28.6322 13.1813 28.6322C13.945 28.6322 14.6071 28.9199 15.0454 29.4423C15.4964 29.9796 15.6683 30.7097 15.5294 31.4978ZM38.2213 31.4978C37.9194 33.2099 36.2848 34.6027 34.5776 34.6027C33.814 34.6027 33.1519 34.315 32.7135 33.7926C32.2625 33.255 32.0906 32.525 32.2296 31.737C32.5314 30.0249 34.166 28.6321 35.8733 28.6321C36.6368 28.6321 37.299 28.9198 37.7373 29.4422C38.1883 29.9796 38.3602 30.7097 38.2213 31.4978ZM42.1679 25.7846H41.2763V25.7844C41.0925 25.7844 40.9442 25.7235 40.8473 25.6081C40.7469 25.4883 40.7102 25.3162 40.7442 25.1234L40.903 24.2231H42.4433L42.1679 25.7846Z" fill="var(--color-icon-brand)"></path><path d="M13.6694 30.6507C13.4255 30.3601 13.0588 30.1934 12.6632 30.1934C11.927 30.1934 11.2493 30.7661 11.1202 31.4976C11.0504 31.8941 11.1516 32.29 11.3979 32.5836C11.6418 32.8742 12.0085 33.0409 12.404 33.0409C13.1402 33.0409 13.818 32.468 13.9469 31.7368C14.0169 31.3402 13.9158 30.9444 13.6694 30.6507Z" fill="var(--color-icon-brand)"></path><path d="M36.3607 30.6507C36.1167 30.3601 35.7501 30.1934 35.3546 30.1934C34.6184 30.1934 33.9407 30.7661 33.8118 31.4975C33.742 31.8941 33.843 32.2899 34.0894 32.5836C34.3333 32.8742 34.7 33.0409 35.0955 33.0409C35.8317 33.0409 36.5094 32.468 36.6384 31.7368C36.7083 31.3402 36.6071 30.9444 36.3607 30.6507Z" fill="var(--color-icon-brand)"></path><path d="M27.7895 27.2546H19.0597C18.6792 27.2546 18.3707 27.5631 18.3707 27.9436C18.3707 28.3241 18.6792 28.6326 19.0597 28.6326H27.7895C28.1699 28.6326 28.4784 28.3242 28.4784 27.9436C28.4784 27.5631 28.1699 27.2546 27.7895 27.2546Z" fill="var(--color-icon-brand)"></path><path d="M15.3856 24.3145H2.67664C2.29619 24.3145 1.98767 24.6228 1.98767 25.0034C1.98767 25.3838 2.29602 25.6923 2.67664 25.6923H15.3856C15.766 25.6923 16.0745 25.3839 16.0745 25.0034C16.0745 24.6228 15.7662 24.3145 15.3856 24.3145Z" fill="var(--color-icon-brand)"></path><path d="M28.5426 21.5434L25.992 19.3388C25.7041 19.0901 25.2691 19.1217 25.0202 19.4096C24.7713 19.6975 24.8031 20.1324 25.091 20.3813L26.2415 21.3758H8.77266C8.39224 21.3758 8.08374 21.6842 8.08374 22.0648C8.08374 22.4452 8.39218 22.7537 8.77266 22.7537H25.8046L24.3836 23.6951C24.0663 23.9051 23.9796 24.3327 24.1897 24.6498C24.3222 24.85 24.5414 24.9583 24.7647 24.9583C24.8953 24.9583 25.0275 24.9213 25.1445 24.8436L28.4726 22.6391C28.6524 22.5201 28.7659 22.3239 28.7797 22.1087C28.7934 21.8934 28.7058 21.6842 28.5426 21.5434Z" fill="var(--color-icon-brand)"></path></svg>
