<svg data-test="IconPiggyBank" fill="none" height="40" viewBox="0 0 40 40" width="40" xmlns="http://www.w3.org/2000/svg"><g clip-path="url(#clip0_507_5074)"><path d="M39.2883 16.8526C38.5747 16.548 37.8616 16.242 37.1486 15.936L36.3359 15.5874C35.4513 13.9671 34.1649 12.481 32.5781 11.2452V6.28906C32.5781 5.64187 32.0534 5.11719 31.4062 5.11719C30.272 5.11719 29.1706 5.45336 28.2337 6.05781C27.3219 3.37828 24.7809 1.44531 21.7969 1.44531C18.0749 1.44531 15.0426 4.45266 15.0009 8.16492C11.8674 9.04969 9.15461 10.6323 7.12031 12.7703C5.43547 14.5411 4.33656 16.5695 3.87406 18.731C2.93945 18.217 2.34375 17.2352 2.34375 16.1328C2.34375 15.6296 2.47289 15.131 2.71734 14.691C3.03164 14.1252 2.82781 13.4118 2.26203 13.0976C1.69641 12.7833 0.982891 12.9871 0.668594 13.5529C0.231172 14.3402 0 15.2323 0 16.1328C0 18.4348 1.4518 20.4425 3.62523 21.1691C3.6518 25.2348 5.86398 29.0119 9.72461 31.6071C10.1903 33.6207 10.6564 35.6345 11.1237 37.6477C11.2469 38.1787 11.7201 38.5547 12.2652 38.5547H16.0934C16.6388 38.5547 17.1121 38.1785 17.2351 37.6472L17.9344 34.6263C19.7703 34.8654 21.6665 34.8631 23.4993 34.6206C23.7329 35.6298 23.9665 36.6388 24.2008 37.6478C24.324 38.1788 24.7972 38.5547 25.3423 38.5547H29.1705C29.7158 38.5547 30.1891 38.1784 30.3121 37.6471L30.7301 35.8417C31.0597 34.418 31.3892 32.9941 31.7192 31.5705C33.7094 30.2192 35.2923 28.5163 36.3349 26.605L37.2251 26.2236C37.9136 25.9287 38.6022 25.6337 39.2905 25.3381C39.721 25.1533 40 24.7298 40 24.2613V17.9302C40 17.4609 39.7199 17.0369 39.2883 16.8526ZM21.7969 3.78906C24.2523 3.78906 26.25 5.78672 26.25 8.24219C26.25 9.70727 25.5162 11.0877 24.3164 11.9141H19.2773C18.0776 11.0877 17.3438 9.70727 17.3438 8.24219C17.3438 5.78672 19.3414 3.78906 21.7969 3.78906ZM37.6562 23.4891C37.205 23.6826 36.7536 23.8759 36.3023 24.0692L35.0282 24.6152C34.7735 24.7243 34.5658 24.9203 34.4418 25.1682C33.532 26.9879 32.0146 28.6108 30.0534 29.8613C29.7948 30.0263 29.6112 30.2859 29.5419 30.5847C29.1764 32.1608 28.8116 33.737 28.4466 35.3132L28.2388 36.2109H26.2734C26.0877 35.4101 25.9023 34.6091 25.717 33.808L25.5361 33.0268C25.3944 32.4148 24.7959 32.0233 24.1779 32.1395C21.9234 32.5633 19.5125 32.5663 17.2524 32.147C16.6358 32.0327 16.0384 32.4239 15.897 33.0348L15.1617 36.2109H13.1962C12.764 34.3473 12.3327 32.4832 11.9016 30.6193C11.8321 30.3186 11.6468 30.0576 11.3859 29.8927C7.9425 27.7166 5.96766 24.5101 5.96766 21.0953C5.96766 16.3523 9.71523 12.1801 15.3878 10.4924C15.5912 11.0682 15.8707 11.6145 16.2179 12.1155C15.9073 12.3263 15.703 12.6822 15.703 13.0859C15.703 13.733 16.2277 14.2577 16.8749 14.2577H26.7187C27.3659 14.2577 27.8905 13.733 27.8905 13.0859C27.8905 12.6822 27.6863 12.3263 27.3757 12.1155C28.028 11.1741 28.4427 10.0735 28.5595 8.9168C28.5645 8.91047 28.5698 8.90484 28.5746 8.89836C28.9972 8.325 29.5801 7.89891 30.2343 7.665V11.8313C30.2343 12.2084 30.4157 12.5623 30.7217 12.7826C32.3573 13.9593 33.6438 15.4259 34.4426 17.024C34.5665 17.272 34.7744 17.468 35.0293 17.5773L36.2243 18.0898C36.7015 18.2947 37.1787 18.4995 37.6562 18.7038V23.4891H37.6562Z" fill="var(--color-icon-brand)"></path><path d="M29.8438 17.3047C29.1983 17.3047 28.6719 17.8311 28.6719 18.4766C28.6719 19.122 29.1983 19.6484 29.8438 19.6484C30.4892 19.6484 31.0156 19.122 31.0156 18.4766C31.0156 17.8311 30.4892 17.3047 29.8438 17.3047Z" fill="var(--color-icon-brand)"></path></g><defs><clipPath id="clip0_507_5074"><rect fill="white" height="40" width="40"></rect></clipPath></defs></svg>