<svg data-test="IconRescueAndSave" height="40" version="1.1" viewBox="0 0 20 20" width="40" xmlns="http://www.w3.org/2000/svg" class="sc-a2eabfc7-0 dGFzkm"><path class="st0" d="M15.1 17.4c0 .2-.1.3-.3.3H5.3c-.2 0-.3-.1-.3-.3v-1c0-.2.1-.3.3-.3h9.5c.2 0 .3.1.3.3v1zM14.3 10.7v4.7H5.7v-4.7c0-2.4 1.9-4.3 4.3-4.3s4.3 1.9 4.3 4.3z"></path><path class="st1" d="M13.7 12.4v-1.7c0-1.8-1.3-3.4-3-3.6 1.3.6 2.2 2 2.2 3.6v1.7"></path><path class="st2" d="M9.8 2.6c0-.1.1-.2.2-.2s.2.1.2.2v2.3c0 .1-.1.2-.2.2s-.2-.1-.2-.2V2.6zM6.5 5.9c0 .1.2.2.3.1.1-.1.2-.2.1-.3l-1.1-2c-.1-.1-.2-.2-.4-.1-.1.1-.1.2-.1.3l1.2 2zM4.1 8.4c.1.1.3 0 .3-.1.1-.1 0-.3-.1-.3l-2-1.1c-.1-.1-.3 0-.3.1s0 .2.2.3l1.9 1.1zM3.4 11.8c.1 0 .2-.1.2-.2s-.1-.2-.2-.2H1.1c-.1 0-.2.1-.2.2s.1.2.2.2h2.3zM19 11.8c.1 0 .2-.1.2-.2s-.1-.2-.2-.2h-2.3c-.1 0-.2.1-.2.2s.1.2.2.2H19zM17.9 7.3c.1-.1.1-.2.1-.3-.1-.1-.2-.2-.3-.1l-2 1.1c-.1.1-.1.2-.1.3.1.1.2.2.3.1l2-1.1zM14.7 3.9c.1-.1 0-.3-.1-.3-.1-.1-.3 0-.3.1l-1.1 2c-.1.1 0 .3.1.3.1.1.3 0 .3-.1l1.1-2z"></path></svg>