<svg data-test="IconQuickBuyBag" height="40" width="40" xmlns="http://www.w3.org/2000/svg"><path clip-rule="evenodd" d="M32.5 10.833v.834H35A3.333 3.333 0 0 1 38.333 15L35 33.333a3.333 3.333 0 0 1-3.333 3.334H10a3.333 3.333 0 0 1-3.333-3.334l.166-1.666H10.167L10 33.333h21.667L35 15h-2.5v1.667a1.667 1.667 0 0 1-3.333 0V15h-8.334v1.667a1.667 1.667 0 0 1-3.333 0V15H10a3.333 3.333 0 0 1 3.333-3.333H17.5v-.834a7.5 7.5 0 1 1 15 0Zm-11.667 0a4.167 4.167 0 0 1 8.334 0v.834h-8.334v-.834Z" fill="var(--color-icon-brand)" fill-rule="evenodd"></path><rect fill="var(--color-icon-brand)" height="3.333" rx="1" width="11.667" x="1.667" y="16.667"></rect><path d="M2.5 22.667a1 1 0 0 1 1-1h8a1 1 0 0 1 1 1V24a1 1 0 0 1-1 1h-8a1 1 0 0 1-1-1v-1.333Z" fill="var(--color-icon-brand)"></path><rect fill="var(--color-icon-brand)" height="3.333" rx="1" width="8.333" x="3.333" y="26.667"></rect></svg>