<svg data-test="IconFlipTheWrapper" height="40" width="40" xmlns="http://www.w3.org/2000/svg"><path d="m27.17 22-1.654-.752 2.105 5.712 5.712-2.104-1.803-.752c0-.3.15-.601.15-.751 1.202-6.464-2.706-12.928-9.02-14.582l-1.202 4.51c3.758 1.052 6.163 4.81 5.712 8.719ZM17.7 28.614c-1.203-.3-2.405-.752-3.458-1.503l1.503-1.053-6.013-1.052L8.68 31.02l1.654-1.052c1.804 1.804 4.059 3.007 6.464 3.457.902 0 1.653.15 2.405.15 3.307 0 6.464-1.352 8.87-3.607l-3.308-3.457c-1.804 1.803-4.51 2.705-7.065 2.104ZM11.536 19.444c.451-2.706 2.405-4.81 4.81-5.862l.151 1.803 3.909-4.66-4.66-4.058.15 1.954c-4.51 1.353-8.118 5.11-9.02 9.921-.3 1.954-.3 3.758.15 5.562l4.66-1.202a5.495 5.495 0 0 1-.15-3.458Z" fill="var(--color-icon-brand)"></path></svg>