<svg height="40" width="40" xmlns="http://www.w3.org/2000/svg"><g fill="var(--green-60)"><path d="M28.41 20.49a.781.781 0 0 0-.482-.514 5.55 5.55 0 0 0-1.03-.242c2.555-2.719 1.71-5.895 1.511-6.516a.781.781 0 0 0-.481-.514c-.11-.04-2.022-.714-4.201.044.123-.505.195-1.06.195-1.669 0-3.895-2.95-5.608-3.543-5.912a.78.78 0 0 0-.704-.023c-.146.068-3.588 1.715-3.588 5.935 0 .61.072 1.167.196 1.672-2.183-.763-4.1-.087-4.21-.047a.781.781 0 0 0-.482.514c-.2.62-1.043 3.797 1.512 6.516a5.55 5.55 0 0 0-1.03.241.781.781 0 0 0-.482.515c-.204.633-1.08 3.93 1.676 6.685 1.594 1.594 3.363 1.975 4.689 1.975.49 0 .92-.053 1.257-.115v5.112a.781.781 0 1 0 1.563 0v-5.114a7 7 0 0 0 1.268.116c1.326 0 3.096-.38 4.69-1.974 2.754-2.755 1.879-6.052 1.675-6.685Zm-9.197 6.11a5.213 5.213 0 0 1-.114.867c-.835.185-2.925.406-4.728-1.397-1.775-1.775-1.589-3.83-1.392-4.727a5.239 5.239 0 0 1 2.684.127 5.12 5.12 0 0 1 2.039 1.27c1.126 1.126 1.462 2.365 1.511 3.339v.52Zm0-7.271a5.208 5.208 0 0 1-.114.867 5.192 5.192 0 0 1-2.63-.105 6.343 6.343 0 0 0-.337-.12 5.16 5.16 0 0 1-1.76-1.172c-1.776-1.776-1.59-3.83-1.393-4.727.834-.181 2.93-.397 4.723 1.397l.032.034c.069.077.138.15.206.221a4.948 4.948 0 0 1 1.273 3.084v.52Zm.793-3.92a5.315 5.315 0 0 1-1.068-.91c-.653-.725-1.289-1.838-1.289-3.42 0-2.546 1.63-3.868 2.351-4.328.773.495 2.359 1.816 2.359 4.328 0 1.493-.56 2.565-1.169 3.289a7.49 7.49 0 0 0-.357.383c-.312.304-.611.52-.827.658Zm.775 3.667a4.946 4.946 0 0 1 1.207-3.271c.115-.115.231-.238.346-.37 1.792-1.763 3.857-1.548 4.687-1.364.197.895.384 2.951-1.392 4.728a5.159 5.159 0 0 1-1.758 1.172 6.322 6.322 0 0 0-.342.12 5.19 5.19 0 0 1-2.627.105 5.241 5.241 0 0 1-.122-1.1v-.02Zm4.848 6.994c-1.803 1.803-3.893 1.582-4.726 1.398-.181-.832-.401-2.931 1.396-4.728a5.155 5.155 0 0 1 1.761-1.173 6.31 6.31 0 0 0 .336-.12 5.192 5.192 0 0 1 2.625-.105c.197.896.384 2.952-1.392 4.728Z"></path><path d="M24.168.435A20.135 20.135 0 0 0 20 0 19.869 19.869 0 0 0 5.858 5.858 19.869 19.869 0 0 0 0 20c0 4.451 1.498 8.797 4.226 12.295a2.948 2.948 0 0 0-.472 1.607c0 .793.309 1.539.87 2.1.56.56 1.306.869 2.099.869a2.95 2.95 0 0 0 2.099-.87c.56-.56.87-1.306.87-2.099a2.95 2.95 0 0 0-.87-2.099 2.95 2.95 0 0 0-2.1-.87c-.47 0-.922.11-1.33.315A18.472 18.472 0 0 1 1.562 20C1.563 9.834 9.835 1.562 20 1.562c1.296 0 2.589.135 3.844.402a.781.781 0 1 0 .324-1.529ZM5.728 32.908c.275-.274.635-.411.995-.411a1.402 1.402 0 0 1 1.406 1.405 1.408 1.408 0 0 1-2.813 0c0-.375.147-.729.412-.994ZM35.774 7.705a2.948 2.948 0 0 0 .472-1.607 2.95 2.95 0 0 0-.87-2.1 2.949 2.949 0 0 0-2.099-.87 2.95 2.95 0 0 0-2.099.87 2.95 2.95 0 0 0-.87 2.1c0 .793.31 1.538.87 2.099.56.56 1.306.87 2.1.87.47 0 .922-.11 1.33-.315A18.473 18.473 0 0 1 38.438 20c0 10.166-8.272 18.437-18.438 18.437-1.094 0-2.19-.096-3.257-.286a.781.781 0 0 0-.274 1.538c1.158.206 2.346.31 3.531.31a19.87 19.87 0 0 0 14.142-5.857A19.869 19.869 0 0 0 40 20c0-4.451-1.498-8.797-4.226-12.295Zm-1.502-.613a1.397 1.397 0 0 1-.995.412 1.408 1.408 0 0 1 0-2.813c.376 0 .729.147.995.412.265.266.412.619.412.995 0 .375-.147.728-.412.994ZM13.136 37.117l-.295.724.292-.725a.781.781 0 0 0-.585 1.45l.024.009a.782.782 0 0 0 .564-1.458ZM27.486 1.449l-.014-.006a.781.781 0 0 0-.58 1.45l.009.004a.779.779 0 0 0 1.017-.431.781.781 0 0 0-.432-1.017Z"></path></g></svg>