<svg height="40" width="40" xmlns="http://www.w3.org/2000/svg"><g fill="var(--green-60)"><path d="M38.758 18.563c.372-1.032.411-2.032.114-2.986-.334-1.073-1.034-1.86-1.629-2.37.651-.663.993-1.583.927-2.512A3.257 3.257 0 0 0 40 7.781a3.258 3.258 0 0 0-1.83-2.915 3.257 3.257 0 0 0-1.61-3.043 3.258 3.258 0 0 0-3.439.128 3.258 3.258 0 0 0-3.44-.128 3.258 3.258 0 0 0-1.609 3.043c-.1.048-.195.103-.288.16-2.037-3.14-4.266-3.559-5.47-3.51-1.752.07-3.415 1.189-4.14 2.783-.482 1.062-1.275 1.507-1.855 1.693a3.463 3.463 0 0 1-2.746-.298c-.893-.516-1.955-1.058-3.054-1.165-1.065-.103-2.02.218-2.845.952-.299-.07-.552-.02-.713.034-.853.29-1.358 1.438-1.759 3.064a39.544 39.544 0 0 0-.895-2.999c-.12-.347-.206-.634-.276-.865-.186-.614-.332-1.1-.868-1.251-.536-.151-.913.185-1.39.61l-.188.166-1.32 1.163a.781.781 0 0 0-.207.882C1.09 8.81 2.288 15.8 2.696 18.295h-.372A2.326 2.326 0 0 0 0 20.617v3.165c0 .592.223 1.132.588 1.543-.366.41-.588.95-.588 1.542v3.165c0 .592.223 1.132.588 1.543-.366.41-.588.95-.588 1.542v3.165a2.326 2.326 0 0 0 2.324 2.324h35.352A2.326 2.326 0 0 0 40 36.283v-3.165c0-.591-.222-1.132-.588-1.542.366-.41.588-.951.588-1.543v-3.165c0-.591-.222-1.132-.588-1.542.366-.411.588-.951.588-1.543v-3.165c0-.89-.504-1.666-1.242-2.055Zm-1.377-2.521c.215.691.148 1.448-.196 2.252h-4.053l.09-.156c.922-1.596 1.453-2.875 1.636-3.968l.085.002c.284 0 .568-.038.844-.113.431.292 1.278.97 1.594 1.983Zm-8.255-9.899a.781.781 0 0 0 .58-1.004c-.241-.745.077-1.57.757-1.963a1.682 1.682 0 0 1 2.078.326.781.781 0 0 0 1.16 0 1.682 1.682 0 0 1 2.078-.326c.68.393.998 1.218.757 1.963a.781.781 0 0 0 .58 1.004 1.682 1.682 0 0 1 1.321 1.638c0 .784-.555 1.473-1.32 1.637a.781.781 0 0 0-.58 1.004 1.673 1.673 0 0 1-1.67 2.185c-.166-.9-.63-1.59-1.199-2.132.395-.483.93-.966 1.432-1.176a.781.781 0 1 0-.602-1.441c-.797.333-1.547 1.007-2.085 1.683a12.091 12.091 0 0 0-.463-.266c.316-.805.526-1.792.416-2.648a.781.781 0 1 0-1.55.199c.07.54-.081 1.247-.303 1.83a4.288 4.288 0 0 0-1.22-.186 3.62 3.62 0 0 0-1.226.21 1.673 1.673 0 0 1 1.059-2.537Zm-1.014 6.296a.781.781 0 0 0 .392-1.458l-.678-.391a3.336 3.336 0 0 1 .44-.29 2.086 2.086 0 0 1 1.027-.267c.581 0 1.251.23 2.109.725 1.241.717 1.822 1.38 1.94 2.215.095.668-.095 1.54-.577 2.64l-1.197-.69a.781.781 0 1 0-.78 1.353l1.276.737c-.063.112-.127.227-.195.343-.183.317-.367.631-.55.938H23.01c.314-.669.66-1.364 1.034-2.08l.883.51a.781.781 0 1 0 .781-1.353l-.924-.534c.216-.39.439-.784.67-1.185.458-.793.875-1.416 1.255-1.903l1.014.585a.777.777 0 0 0 .39.105Zm-16.64 4.215a6.153 6.153 0 0 1 6.147-6.146 6.155 6.155 0 0 1 5.678 3.792 66.77 66.77 0 0 0-.24.44v.001l-.003.004a55.128 55.128 0 0 0-1.763 3.55h-9.597a6.138 6.138 0 0 1-.221-1.641Zm.482-8.324a3.913 3.913 0 0 0-2.346-.465l.057-.146a.781.781 0 0 0-.198-.874L9 6.421c.911-.611 2.002-.407 3.792.626a5.046 5.046 0 0 0 4.004.433c1.245-.4 2.24-1.3 2.801-2.534.392-.862 1.429-1.814 2.78-1.869 1.524-.062 3.036 1.04 4.29 3.11a3.217 3.217 0 0 0 .053 3.284 7.3 7.3 0 0 0-.786.765c-.56.628-1.126 1.434-1.715 2.434a7.73 7.73 0 0 0-3.185-2.925c.145-.517.417-1.3.878-2.012a.781.781 0 1 0-1.311-.85c-.527.813-.85 1.688-1.034 2.314a7.682 7.682 0 0 0-1.948-.252c-4.25 0-7.709 3.458-7.709 7.709 0 .555.06 1.104.177 1.64H8.845c-.06-1.68-.146-5.868.342-8.739a2.43 2.43 0 0 1 2.021.148.778.778 0 0 0 1.06-.313.781.781 0 0 0-.314-1.06Zm-5.738 3.107c.154-.862.347-1.936.598-2.854.255-.935.474-1.335.592-1.5l.625.569c-.926 2.948-.827 8.533-.75 10.642h-.649a47.607 47.607 0 0 0-.609-5.83c.059-.278.122-.63.193-1.027ZM1.702 6.22l.91-.801c.06.193.13.415.218.671.744 2.16 1.99 6.543 2.238 12.205H4.28C3.932 16.132 2.79 9.336 1.702 6.22Zm36.736 30.064c0 .42-.342.761-.762.761H2.324a.762.762 0 0 1-.761-.76v-3.166c0-.42.341-.761.76-.761h35.353c.42 0 .761.341.761.76v3.166Zm0-6.25c0 .42-.342.761-.762.761H2.324a.762.762 0 0 1-.761-.76v-3.166c0-.42.341-.761.76-.761h35.353c.42 0 .761.341.761.761v3.165Zm0-6.25c0 .42-.342.761-.762.761H2.324a.762.762 0 0 1-.761-.76v-3.166c0-.42.341-.761.76-.761h35.354c.42 0 .76.342.76.761v3.165Z"></path><path d="m28.857 15.162.008.004a.778.778 0 0 0 1.067-.287.781.781 0 0 0-.287-1.067l-.009-.005a.781.781 0 0 0-.779 1.355ZM23.03 6.475a.779.779 0 0 0 .32-.07l.029-.012a.781.781 0 1 0-.627-1.432l-.043.02a.781.781 0 0 0 .32 1.494ZM4.766 21.42a.783.783 0 0 0-.781.78c0 .43.35.782.781.782.43 0 .781-.351.781-.781 0-.43-.35-.782-.781-.782ZM4.766 27.67a.783.783 0 0 0-.781.78c0 .43.35.782.781.782.43 0 .781-.351.781-.781 0-.43-.35-.782-.781-.782ZM4.766 33.92c-.43 0-.781.35-.781.78 0 .43.35.782.781.782a.783.783 0 0 0 0-1.563ZM35.234 21.42a.783.783 0 0 0-.78.78c0 .43.35.782.78.782.43 0 .782-.351.782-.781 0-.43-.351-.782-.782-.782ZM35.234 27.67a.783.783 0 0 0-.78.78c0 .43.35.782.78.782.43 0 .782-.351.782-.781 0-.43-.351-.782-.782-.782ZM35.234 33.92c-.43 0-.78.35-.78.78 0 .43.35.782.78.782a.783.783 0 0 0 0-1.563Z"></path></g></svg>