<svg height="40" width="40" xmlns="http://www.w3.org/2000/svg"><g clip-rule="evenodd" fill="var(--green-60)" fill-rule="evenodd" mask="url(#a)"><path d="M19.668 36.8c.21.1.454.1.664 0 5.868-2.757 11.36-6.7 16.16-11.827 4.677-4.998 4.677-13.08 0-18.078C31.972 2.067 24.734 1.876 20 6.324c-4.734-4.448-11.972-4.257-16.492.571-4.677 4.998-4.677 13.08 0 18.078l.57-.534-.57.534c4.8 5.126 10.292 9.07 16.16 11.828ZM20 35.23c-5.563-2.665-10.777-6.438-15.351-11.324-4.115-4.397-4.115-11.545 0-15.942l-.57-.534.57.534c4.088-4.367 10.693-4.367 14.78 0a.781.781 0 0 0 1.141 0c4.088-4.367 10.693-4.367 14.78 0l.503-.47-.502.47c4.115 4.397 4.115 11.545 0 15.942C30.778 28.79 25.563 32.564 20 35.229Z"></path><path d="M19.646 33.312a.782.782 0 0 0 .708 0c5.135-2.611 9.79-6.131 13.856-10.475 1.724-1.842 2.665-4.298 2.665-6.903 0-2.605-.94-5.061-2.665-6.903-1.669-1.783-3.888-2.78-6.25-2.78-2.36 0-4.58.997-6.249 2.78l-1.653 1.766a.079.079 0 0 1-.116 0L18.29 9.031c-1.669-1.783-3.889-2.78-6.25-2.78a8.278 8.278 0 0 0-3.075.59.781.781 0 1 0 .579 1.452 6.715 6.715 0 0 1 2.496-.48c1.906 0 3.72.801 5.11 2.286l1.653 1.766a1.641 1.641 0 0 0 2.396 0l1.654-1.766c1.39-1.485 3.203-2.286 5.109-2.286 1.905 0 3.719.801 5.108 2.286 1.44 1.538 2.243 3.607 2.243 5.835 0 2.228-.802 4.296-2.243 5.835-3.851 4.116-8.241 7.461-13.069 9.968-4.828-2.507-9.218-5.852-13.07-9.968-1.44-1.539-2.242-3.607-2.242-5.835 0-1.088.19-2.137.554-3.105a.781.781 0 1 0-1.463-.549 10.398 10.398 0 0 0-.654 3.654c0 2.605.94 5.061 2.665 6.903 4.066 4.344 8.721 7.864 13.856 10.475Z"></path><path d="M21.377 24.268a7.903 7.903 0 0 1 4.74-10.579l-.25-.74.25.74a7.701 7.701 0 0 0 2.983-1.861 7.86 7.86 0 0 1 1.457 3.706c.521 4.325-2.606 8.291-6.933 8.793a7.893 7.893 0 0 1-2.247-.059Zm2.427 1.612a9.445 9.445 0 0 1-3.142-.16.782.782 0 0 1-.534-.423 9.45 9.45 0 0 1-.875-2.99c-.546-4.53 2.205-8.697 6.365-10.099a6.21 6.21 0 0 0 2.891-2.065.781.781 0 0 1 1.191-.045 9.422 9.422 0 0 1 2.408 5.249c.625 5.184-3.117 9.93-8.304 10.533Zm-3.775-3.666-.776.094.776-.094Z"></path><path d="M20 29.88c.431 0 .781-.35.781-.782 0-4.14 2.216-7.563 4.806-9.358a.781.781 0 1 0-.89-1.284c-2.971 2.06-5.478 5.943-5.478 10.642 0 .431.35.781.781.781Z"></path><path d="M17.587 24.118c-3.624.016-6.595-2.942-6.595-6.566l6.595 6.566Zm-5.033-6.566c0-.782.179-1.52.497-2.178.591.412 1.262.709 1.98.858l.158-.765-.159.765a5.006 5.006 0 0 1 3.821 6.155c-.405.108-.83.167-1.27.169-2.76.012-5.027-2.246-5.027-5.004m5.033 6.566a6.557 6.557 0 0 0 2.152-.371.782.782 0 0 0 .48-.484 6.569 6.569 0 0 0-4.87-8.561 3.88 3.88 0 0 1-1.947-1.065.781.781 0 0 0-1.188.098 6.54 6.54 0 0 0-1.223 3.817"></path><path d="M20 29.88c.431 0 .781-.35.781-.782l.002-.763c.008-1.726.013-3.102-.355-4.414-.434-1.548-1.36-2.955-3.17-4.862a.781.781 0 1 0-1.134 1.075c1.739 1.833 2.466 3.02 2.8 4.209.305 1.087.302 2.222.296 3.99l-.001.765c0 .431.35.781.781.781Z"></path><path d="M20 33.397c.431 0 .781-.35.781-.782v-3.517a.781.781 0 1 0-1.562 0v3.517c0 .432.35.782.781.782Z"></path></g></svg>