<svg height="40" width="40" xmlns="http://www.w3.org/2000/svg"><g clip-rule="evenodd" fill="var(--green-60)" fill-rule="evenodd"><path d="M15.028 13.008c.305.305.8.305 1.105 0a5.47 5.47 0 0 1 7.734 0 .781.781 0 1 0 1.105-1.105 7.031 7.031 0 0 0-9.944 0 .781.781 0 0 0 0 1.105Z"></path><path d="M17.238 15.217c.305.305.8.305 1.105 0a2.344 2.344 0 0 1 3.314 0 .781.781 0 0 0 1.105-1.105 3.906 3.906 0 0 0-5.524 0 .781.781 0 0 0 0 1.105ZM19.218 16.875a.781.781 0 1 0 .782-.781.781.781 0 0 0-.782.78Z"></path><path d="M16.996 28.585c.933.558 1.954.94 3.004.94s2.07-.382 3.004-.94c.936-.56 1.83-1.323 2.64-2.15 1.617-1.654 2.977-3.642 3.765-5.024 1.267-2.221 2.31-4.892 2.31-7.6 0-6.407-5.281-11.78-11.719-11.78-1.879 0-3.66.459-5.239 1.266a.781.781 0 0 0 .712 1.391A9.918 9.918 0 0 1 20 3.593c5.562 0 10.156 4.66 10.156 10.219 0 2.328-.905 4.723-2.104 6.825-.739 1.296-2.022 3.168-3.526 4.705-.75.768-1.539 1.433-2.324 1.902-.788.471-1.53.719-2.202.719-.673 0-1.414-.248-2.202-.72-.785-.468-1.573-1.133-2.324-1.901-1.504-1.537-2.787-3.41-3.526-4.705-1.199-2.102-2.104-4.497-2.104-6.825 0-1.619.39-3.162 1.081-4.538a.781.781 0 0 0-1.396-.702 11.645 11.645 0 0 0-1.248 5.24c0 2.707 1.043 5.378 2.31 7.599.788 1.382 2.148 3.37 3.766 5.024.81.827 1.702 1.59 2.639 2.15Z"></path><path d="M18.752 26.002c.375.213.814.399 1.248.399.434 0 .873-.186 1.248-.399.398-.225.824-.54 1.258-.914.868-.75 1.825-1.788 2.715-2.98 1.756-2.353 3.373-5.474 3.373-8.296 0-4.67-3.867-8.672-8.594-8.656-4.727-.016-8.594 3.987-8.594 8.656 0 2.822 1.617 5.943 3.373 8.296.89 1.192 1.847 2.23 2.715 2.98.434.374.86.689 1.258.914Zm-2.72-4.828c-1.692-2.267-3.063-5.05-3.063-7.362 0-3.833 3.192-7.108 7.028-7.093a.6.6 0 0 0 .006 0c3.836-.015 7.028 3.26 7.028 7.093 0 2.312-1.371 5.095-3.062 7.362-.834 1.118-1.716 2.069-2.484 2.73a6.625 6.625 0 0 1-1.008.74c-.14.079-.254.13-.343.161a.75.75 0 0 1-.134.033.75.75 0 0 1-.134-.033 2.124 2.124 0 0 1-.343-.162 6.625 6.625 0 0 1-1.008-.738c-.768-.663-1.65-1.613-2.484-2.731Z"></path><path d="m1.568 35.898 4.674-12.5c.083-.223.292-.495.608-.715.312-.216.669-.34.997-.34h3.63a.781.781 0 0 0 0-1.562h-3.63c-.703 0-1.365.256-1.888.62-.52.36-.963.869-1.18 1.45l-4.675 12.5c-.303.812.096 1.522.552 1.935a2.67 2.67 0 0 0 1.738.682h35.212a2.67 2.67 0 0 0 1.738-.681c.456-.414.855-1.124.552-1.936l-4.674-12.5c-.218-.583-.665-1.092-1.184-1.451-.524-.363-1.185-.619-1.885-.619h-3.447a.781.781 0 0 0 0 1.563h3.447c.324 0 .681.122.995.34.318.22.527.493.61.714l4.674 12.5c.007.017.008.026 0 .05a.487.487 0 0 1-.137.18 1.113 1.113 0 0 1-.689.278H2.394c-.222 0-.503-.109-.689-.277a.487.487 0 0 1-.136-.18c-.009-.025-.008-.034-.001-.05Z"></path><path d="M7.702 37.87c.42.098.84-.164.937-.584l3.526-15.206a.781.781 0 0 0-1.522-.353L7.117 36.933c-.097.42.165.84.585.937ZM32.298 37.87a.781.781 0 0 0 .585-.937l-3.541-15.274a.781.781 0 0 0-1.523.353l3.542 15.274c.097.42.517.682.937.584ZM15.904 37.888a.781.781 0 0 0 .84-.719l.737-9.555a.781.781 0 1 0-1.558-.12l-.738 9.555a.781.781 0 0 0 .72.839ZM24.096 37.888a.781.781 0 0 0 .719-.839l-.732-9.472a.781.781 0 0 0-1.557.12l.73 9.472c.034.43.41.752.84.719Z"></path><path d="M3.86 25.976c0 .432.35.782.78.782h10.322a.781.781 0 0 0 0-1.563H4.64a.781.781 0 0 0-.781.781Zm20.415 0c0 .432.35.782.781.782H35.36a.781.781 0 0 0 0-1.563H25.056a.781.781 0 0 0-.78.781ZM1.992 30.84c0 .431.35.78.781.78h34.454a.781.781 0 1 0 0-1.562H2.773a.781.781 0 0 0-.781.782ZM11.499 6.07a.781.781 0 1 0 .782-.781.781.781 0 0 0-.782.78Z"></path></g></svg>