<svg data-test="IconAdvantageHealthyFood" viewBox="0 0 44 44" xmlns="http://www.w3.org/2000/svg"><path d="M42.909 24.7149C42.909 21.7215 41.4781 18.8629 39.0814 17.0685C38.5927 16.7015 37.9867 16.5 37.376 16.5C36.6114 16.5 35.895 16.8101 35.369 17.3374C35.2707 17.2542 35.1813 17.1628 35.0796 17.0837C34.7034 16.7922 34.252 16.6189 33.7883 16.5475L34.0873 13.2138C34.094 13.134 34.0974 13.0535 34.0974 12.9731C34.0974 11.506 32.9207 10.3125 31.4743 10.3125H31.298C29.8516 10.3125 28.6749 11.506 28.6749 12.9731C28.6749 13.0535 28.6783 13.134 28.6857 13.2145L28.986 16.5625C28.5563 16.6451 28.1408 16.8135 27.7897 17.0788C27.6683 17.171 27.5606 17.2768 27.4439 17.3738C27.3836 17.3105 27.3199 17.2515 27.2542 17.1944C27.2928 16.9655 27.3193 16.7338 27.3193 16.5C27.3193 15.6269 27.0509 14.7915 26.5533 14.0938C27.0509 13.3959 27.3193 12.5613 27.3193 11.6875C27.3193 9.33347 25.3556 7.42569 23.0158 7.57007C22.5806 6.30507 21.5659 5.3515 20.3187 4.98368C19.4932 3.93938 18.2487 3.35981 16.9154 3.44506C16.3542 1.81362 14.8345 0.6875 13.0851 0.6875C11.6176 0.6875 10.2817 1.48362 9.56179 2.75206C7.76696 2.81325 6.21543 4.09819 5.77078 5.84856C3.67226 6.64262 2.24003 8.70307 2.24003 11C2.24003 12.8418 3.13339 14.5255 4.61171 15.543C4.38871 16.0593 4.27348 16.6175 4.27348 17.1875C4.27348 18.425 4.81574 19.5752 5.74638 20.3541C5.66843 20.6731 5.62912 20.9942 5.62912 21.3125C5.62912 23.419 7.1949 25.1625 9.20799 25.4079L10.7073 29.667C9.93938 30.2411 9.28527 30.9595 8.78162 31.7845L5.23056 30.9842C5.09568 30.9526 4.95672 30.9375 4.81709 30.9375C3.76986 30.9375 2.91785 31.8017 2.91785 32.8638V33.1361C2.91785 33.3286 2.95445 33.5115 3.00664 33.6875H2.91785C1.79674 33.6875 0.884399 34.6129 0.884399 35.75C0.884399 36.8871 1.79674 37.8125 2.91785 37.8125H3.00664C2.95445 37.9885 2.91785 38.1714 2.91785 38.3638V38.6361C2.91785 39.6983 3.76986 40.5625 4.81709 40.5625C4.95672 40.5625 5.09567 40.5474 5.2292 40.5165L8.78162 39.7155C10.0973 41.8701 12.4419 43.3125 15.1186 43.3125H15.2778C15.6547 43.3125 16.0363 43.2829 16.4112 43.2245L39.6542 39.5979C41.5399 39.303 42.909 37.6853 42.909 35.75C42.909 34.2025 42.0259 32.8708 40.7109 32.2431C42.1153 30.5415 42.909 28.3828 42.909 26.1601V24.7149ZM34.2553 18.1761C36.2786 19.745 37.4865 22.2441 37.4865 24.8628V27.3879C37.4865 28.7973 37.1401 30.1771 36.4874 31.4085L31.052 30.5601C30.8283 29.5625 30.7083 28.5436 30.7083 27.5206V24.7294C30.7083 24.0364 30.7768 23.3441 30.8805 22.6579C31.0466 22.6724 31.212 22.6875 31.3862 22.6875C33.3186 22.6875 34.7752 21.8006 34.7752 20.625C34.7752 19.976 34.3326 19.3999 33.566 19.0218L33.6657 17.9094C33.8771 17.9527 34.0805 18.0393 34.2553 18.1761ZM31.298 11.6875H31.475C32.1738 11.6875 32.7425 12.2643 32.7425 12.9731C32.7425 13.0123 32.7411 13.0515 32.737 13.09L32.1216 19.9561L32.6387 20.1245C33.2325 20.317 33.4196 20.5707 33.4196 20.625C33.4196 20.7962 32.6984 21.3125 31.3862 21.3125C30.0739 21.3125 29.3527 20.7962 29.3527 20.625C29.3527 20.5707 29.5398 20.317 30.1335 20.1238L30.6507 19.9554L30.0353 13.09C30.0319 13.0508 30.0305 13.0116 30.0305 12.9731C30.0305 12.2643 30.5992 11.6875 31.298 11.6875ZM29.1087 17.9321L29.2063 19.0218C28.4397 19.3999 27.997 19.976 27.997 20.625C27.997 21.3826 28.6064 22.0158 29.5533 22.3733C29.432 23.1536 29.3527 23.9415 29.3527 24.7294V27.5206C29.3527 28.4652 29.4422 29.4085 29.6157 30.3359L25.62 29.7124C25.4024 28.9568 25.2858 28.1778 25.2858 27.3872V24.8621C25.2858 22.2475 26.5248 19.7491 28.6003 18.1802C28.7515 18.0661 28.9257 17.9822 29.1087 17.9321ZM21.7835 29.1135C21.4154 28.1689 21.2189 27.1796 21.2189 26.1601V24.7142C21.2189 22.1554 22.4444 19.7106 24.4961 18.1734C24.7537 17.9809 25.0736 17.875 25.3963 17.875C25.8057 17.875 26.1826 18.0421 26.4584 18.3218C24.8602 20.0984 23.9301 22.4318 23.9301 24.8628V27.3879C23.9301 28.0968 24.0136 28.798 24.1647 29.4855L21.7835 29.1135ZM21.8473 8.45692L21.9706 9.16438L22.662 9.00831C22.8721 8.96085 23.0653 8.93753 23.2524 8.93753C24.7476 8.93753 25.9636 10.1709 25.9636 11.6875C25.9636 12.4101 25.687 13.0935 25.1855 13.6118L24.7192 14.0938L25.1855 14.5757C25.687 15.0941 25.9636 15.7775 25.9636 16.5C25.9636 16.5206 25.9595 16.5412 25.9595 16.5625C25.7759 16.5255 25.5888 16.5 25.3963 16.5C24.7856 16.5 24.1796 16.7015 23.6909 17.0679C22.4573 17.9912 21.486 19.1991 20.8272 20.5597C20.5702 19.7485 20.3005 18.9715 20.0226 18.2339C20.6495 14.8748 22.9752 12.9305 22.9988 12.9105L22.5745 12.375L22.1509 11.8381C22.0567 11.9144 20.2232 13.4331 19.1936 16.1728C17.783 12.8879 16.4518 10.7628 16.3664 10.6281L15.2256 11.3719C15.2439 11.4001 16.2776 13.0495 17.4807 15.675C15.4534 14.9009 13.1495 15.1147 13.0173 15.1285L13.1522 16.4965C14.1716 16.3928 17.0591 16.4429 18.408 17.8392C18.8832 19.0238 19.3515 20.3225 19.765 21.714C17.7045 20.6422 15.246 20.625 15.1186 20.625V22C15.1504 22 18.1681 22.0206 19.9541 23.4609C19.8985 23.8748 19.8632 24.2928 19.8632 24.7149V26.1608C19.8632 27.0895 20.0042 27.9978 20.2659 28.8778L16.4112 28.2762C16.2078 28.2445 16.0024 28.2232 15.7963 28.2081C14.3011 28.2081 13.0851 26.9651 13.0851 25.4382C13.0851 25.1178 13.1482 24.7892 13.2715 24.4598L13.4694 23.9339L12.9997 23.6328C12.2046 23.1227 11.7294 22.2558 11.7294 21.3125C11.7294 20.7715 11.886 20.2468 12.1823 19.7945L12.6045 19.151L11.9253 18.8011C10.5501 18.0915 9.69602 16.6835 9.69602 15.125C9.69602 13.2955 10.9079 11.6662 12.6438 11.1622L13.0647 11.0399L13.1278 10.6005C13.321 9.26062 14.4685 8.25 15.7963 8.25C15.8214 8.25 15.8459 8.25547 15.8703 8.25893C15.9177 8.26584 15.9658 8.272 16.0139 8.27546L16.5 8.31531L16.6911 7.86016C17.1188 6.84407 18.0975 6.1875 19.1855 6.1875C20.4991 6.1875 21.6182 7.14177 21.8473 8.45692ZM10.1739 24.0625H9.69602C8.20076 24.0625 6.98475 22.8291 6.98475 21.3125C6.98475 20.9915 7.04778 20.6628 7.17116 20.3349L7.36972 19.8089L6.90004 19.5078C6.10426 18.9977 5.62912 18.1308 5.62912 17.1875C5.62912 16.6465 5.78569 16.1219 6.0819 15.6695L6.50416 15.026L5.825 14.6761C4.44971 13.9665 3.59567 12.5585 3.59567 11C3.59567 9.17054 4.8076 7.54116 6.54283 7.03723L6.96374 6.91485L7.02677 6.47554C7.22062 5.13562 8.36815 4.125 9.69602 4.125C9.7218 4.125 9.74684 4.1305 9.77193 4.13394C9.81804 4.14012 9.86409 4.14631 9.91156 4.15044L10.3996 4.19168L10.5914 3.7345C11.0184 2.71906 11.9972 2.0625 13.0851 2.0625C14.3987 2.0625 15.5178 3.01675 15.7469 4.33194L15.8703 5.03938L16.5616 4.88331C16.7718 4.83588 16.9649 4.8125 17.152 4.8125C17.4638 4.8125 17.76 4.88194 18.0433 4.98231C17.0469 5.27794 16.1888 5.94894 15.6622 6.87707C13.8673 6.93823 12.3158 8.22316 11.8711 9.97354C9.77262 10.7676 8.34039 12.8281 8.34039 15.125C8.34039 16.9668 9.23377 18.6505 10.712 19.668C10.4891 20.1843 10.3738 20.7425 10.3738 21.3125C10.3738 22.55 10.9161 23.7002 11.8468 24.4798C11.7688 24.7988 11.7294 25.1192 11.7294 25.4375C11.7294 26.6455 12.2419 27.731 13.0532 28.4886C12.6507 28.6068 12.2636 28.7602 11.8921 28.9424L10.1739 24.0625ZM4.27348 33.1361V32.8638C4.27348 32.5188 4.6029 32.2527 4.93571 32.3255L8.16141 33.0529C8.08283 33.2605 8.01231 33.4716 7.95201 33.6875H4.81709C4.5175 33.6875 4.27348 33.44 4.27348 33.1361ZM2.24003 35.75C2.24003 35.3712 2.54437 35.0625 2.91785 35.0625H4.81709H7.69644C7.67679 35.2894 7.66254 35.5176 7.66254 35.75C7.66254 35.9824 7.67679 36.2106 7.69712 36.4375H4.81709H2.91785C2.54437 36.4375 2.24003 36.1288 2.24003 35.75ZM4.93435 39.1745C4.61306 39.2445 4.27348 38.9805 4.27348 38.6361V38.3638C4.27348 38.06 4.5175 37.8125 4.81709 37.8125H7.95133C8.01162 38.0284 8.08283 38.2395 8.16079 38.4471L4.93435 39.1745ZM41.5534 35.75C41.5534 37.0019 40.6682 38.0483 39.4488 38.2388L16.2065 41.8653C15.8987 41.9135 15.5863 41.9375 15.2778 41.9375H15.1186C11.7552 41.9375 9.01817 39.1614 9.01817 35.75C9.01817 32.3386 11.7552 29.5625 15.1186 29.5625H15.2778C15.5863 29.5625 15.8987 29.5865 16.2058 29.634L39.4481 33.2605C40.6682 33.4517 41.5534 34.4981 41.5534 35.75ZM41.5534 26.1601C41.5534 28.2748 40.7095 30.3208 39.2414 31.8375L37.8946 31.6271C38.5134 30.3085 38.8421 28.8626 38.8421 27.3872V24.8621C38.8421 22.4187 37.9244 20.0736 36.3477 18.2944C36.6216 18.0325 36.9849 17.875 37.376 17.875C37.6994 17.875 38.0186 17.9809 38.2762 18.1748C40.3279 19.7106 41.5534 22.1561 41.5534 24.7149V26.1601Z" fill="var(--color-icon-brand)"></path><path d="M14.4406 32.3125H15.7962V39.1876H14.4406V32.3125Z" fill="var(--color-icon-brand)"></path><path d="M19.8635 32.3125H21.2192V39.1876H19.8635V32.3125Z" fill="var(--color-icon-brand)"></path><path d="M25.2856 32.3125H26.6413V39.1876H25.2856V32.3125Z" fill="var(--color-icon-brand)"></path><path d="M30.7086 33.6875H32.0643V37.8124H30.7086V33.6875Z" fill="var(--color-icon-brand)"></path><path d="M36.1307 34.375H37.4864V37.125H36.1307V34.375Z" fill="var(--color-icon-brand)"></path></svg>