<svg height="40" width="40" xmlns="http://www.w3.org/2000/svg"><g clip-rule="evenodd" fill="var(--green-60)" fill-rule="evenodd"><path d="M5.197 27.099a4.147 4.147 0 1 0 8.293 0 4.147 4.147 0 0 0-8.293 0Zm4.146 2.584a2.584 2.584 0 1 1 0-5.168 2.584 2.584 0 0 1 0 5.168ZM26.725 27.099a4.147 4.147 0 1 0 8.293 0 4.147 4.147 0 0 0-8.293 0Zm4.146 2.584a2.584 2.584 0 1 1 0-5.168 2.584 2.584 0 0 1 0 5.168Z"></path><path d="M2.083 26.318a.52.52 0 0 1-.52-.52v-5.96c0-.34.274-.615.614-.615h11.158a1.952 1.952 0 0 0 1.952-1.952v-5.24c0-.947.767-1.714 1.713-1.714h9.13c.623 0 1.208.295 1.579.795l2.617 4.426a5.246 5.246 0 0 0 2.798 2.026.795.795 0 0 0 .07.017l3.631.728c.302.09.694.267 1.01.602.31.33.602.869.602 1.8v5.086a.52.52 0 0 1-.52.52h-2.973a4.148 4.148 0 0 0-8.146 0h-2.841a.781.781 0 0 0 0 1.563h3.55c.43 0 .78-.35.78-.781a2.584 2.584 0 1 1 5.169 0c0 .431.35.781.78.781h3.681c1.15 0 2.083-.932 2.083-2.083v-5.086c0-1.3-.425-2.232-1.027-2.87a3.854 3.854 0 0 0-1.808-1.057l-3.627-.727a3.684 3.684 0 0 1-1.886-1.346l-2.617-4.426a3.528 3.528 0 0 0-2.905-1.53H17a3.276 3.276 0 0 0-3.276 3.275v5.24a.39.39 0 0 1-.389.39H2.177A2.176 2.176 0 0 0 0 19.838v5.96c0 1.15.933 2.083 2.083 2.083h3.894c.432 0 .782-.35.782-.781a2.585 2.585 0 0 1 5.168 0c0 .431.35.781.782.781h4.374a.781.781 0 1 0 0-1.562h-3.667a4.148 4.148 0 0 0-8.146 0H2.083Z"></path><path d="M.781 20.618c.432 0 .781-.35.781-.78 0-.34.275-.615.615-.615h11.158a1.952 1.952 0 0 0 1.952-1.952v-2.099a.781.781 0 0 0-.782-.78H2.246A2.246 2.246 0 0 0 0 16.636v3.2c0 .432.35.781.781.781Zm.781-2.87v-1.11c0-.378.307-.684.684-.684h11.478v1.317a.39.39 0 0 1-.39.39H2.178c-.214 0-.42.03-.615.087ZM16.964 17.66c0 .432.35.782.78.782h10.034a1.312 1.312 0 0 0 1.118-2l-2.045-3.855a1.57 1.57 0 0 0-1.348-.768h-7.758a.781.781 0 0 0-.781.78v5.062Zm1.562-.78V13.38h6.977l1.856 3.499h-8.833Z"></path><path d="M21.563 18.442c.431 0 .78-.35.78-.781V12.6a.781.781 0 1 0-1.562 0v5.06c0 .432.35.782.782.782ZM21.348 20.945c0 .431.35.78.781.78h1.863a.781.781 0 1 0 0-1.562h-1.863a.781.781 0 0 0-.78.782ZM37.332 23.108a.808.808 0 0 1 0-1.617h1.105v1.617h-1.105ZM34.96 22.3a2.37 2.37 0 0 0 2.37 2.37h1.888c.431 0 .78-.35.78-.78v-3.18a.781.781 0 0 0-.78-.781h-1.887a2.37 2.37 0 0 0-2.371 2.37Z"></path></g></svg>