<svg data-test="IconAdvantageWinner" viewBox="0 0 44 44" xmlns="http://www.w3.org/2000/svg"><path d="M26.043 5.29172C25.5808 5.18043 25.1173 5.46446 25.0061 5.92577C24.8949 6.38717 25.1788 6.85137 25.6402 6.96263C32.6056 8.64173 37.4702 14.8252 37.4702 21.9998C37.4702 30.5292 30.531 37.4685 22.0015 37.4685C13.472 37.4685 6.53285 30.5292 6.53285 21.9998C6.53285 14.8255 11.3972 8.64198 18.3623 6.96269C18.8236 6.85137 19.1075 6.38717 18.9963 5.92586C18.885 5.46446 18.4206 5.18078 17.9595 5.29181C14.2745 6.18031 10.9359 8.31041 8.5588 11.2898C6.10901 14.3602 4.81409 18.0637 4.81409 21.9998C4.81409 31.477 12.5244 39.1872 22.0015 39.1872C31.4787 39.1872 39.189 31.477 39.189 21.9998C39.189 18.0636 37.894 14.3601 35.4441 11.2895C33.0669 8.31029 29.7281 6.18014 26.043 5.29172Z" fill="var(--color-icon-brand)"></path><path d="M43.4824 19.9329L42.4771 18.0572L42.6447 15.7383C42.8059 14.2519 42.2131 12.8013 41.0567 11.8553L39.3878 10.4887L38.7313 8.51111C38.3636 6.99908 37.2153 5.78374 35.7253 5.33369L33.6653 4.71133L32.0877 2.88775C31.1542 1.78973 29.7413 1.21859 28.308 1.35944L26.1698 1.57248L24.0681 0.518115C22.7729 -0.17239 21.2286 -0.172991 19.9332 0.518029L18.0575 1.52332L15.7386 1.35557C14.2517 1.19436 12.8016 1.78732 11.8556 2.94361L10.489 4.61251L8.51152 5.26898C6.99936 5.63662 5.78403 6.78499 5.33397 8.27489L4.7117 10.3349L2.88812 11.9126C1.79018 12.8461 1.21871 14.2587 1.35973 15.6923L1.57277 17.8304L0.518402 19.9322C-0.172189 21.2275 -0.172705 22.7717 0.518232 24.0672L1.52361 25.9429L1.35586 28.2618C1.19473 29.7481 1.78761 31.1987 2.94389 32.1448L4.61279 33.5113L5.26926 35.489C5.63682 37.001 6.78521 38.2163 8.27524 38.6664L10.3352 39.2887L11.9129 41.1123C12.8465 42.2103 14.2587 42.7818 15.6926 42.6407L17.8306 42.4276L19.9322 43.4818C20.5801 43.8273 21.2902 44.0001 22.0005 44.0001C22.7101 44.0001 23.4198 43.8275 24.0673 43.4821L25.9431 42.4768L28.2619 42.6446C29.7482 42.8055 31.1988 42.2128 32.145 41.0566L33.5116 39.3877L35.4892 38.7313C37.0012 38.3637 38.2165 37.2153 38.6665 35.7253L39.2889 33.6653L41.1126 32.0876C42.2105 31.1542 42.7819 29.7416 42.6409 28.3079L42.4278 26.1699L43.4821 24.0682C44.1727 22.7728 44.1734 21.2284 43.4824 19.9329ZM41.9618 23.2661C41.958 23.2732 41.9543 23.2802 41.9508 23.2873L40.7798 25.6217C40.7068 25.7672 40.6766 25.9303 40.6927 26.0923L40.9305 28.4771C41.0163 29.3491 40.6682 30.2093 39.9936 30.7828L37.976 32.5284C37.8529 32.6349 37.7627 32.774 37.7157 32.9297L37.0213 35.2282C36.7444 36.1446 35.9924 36.8492 35.0587 37.0669C35.0331 37.0728 35.0079 37.0799 34.983 37.0882L32.7338 37.8347C32.5793 37.886 32.4426 37.98 32.3395 38.1059L30.8151 39.9678C30.236 40.6756 29.3465 41.037 28.4362 40.9346C28.4248 40.9333 28.4134 40.9323 28.4022 40.9314L25.8187 40.7446C25.6561 40.7329 25.4941 40.7674 25.3508 40.8443L23.257 41.9664C22.4674 42.3876 21.5244 42.3858 20.7341 41.9615C20.7271 41.9579 20.7201 41.9542 20.713 41.9507L18.3786 40.7797C18.2586 40.7196 18.1266 40.6884 17.9933 40.6884C17.9649 40.6884 17.9365 40.6898 17.908 40.6926L15.5233 40.9302C14.6513 41.0164 13.7911 40.6679 13.2175 39.9934L11.472 37.9758C11.3655 37.8528 11.2263 37.7624 11.0706 37.7154L8.77212 37.0212C7.8556 36.7443 7.1511 35.9923 6.93343 35.0585C6.92752 35.033 6.92035 35.0078 6.91212 34.9829L6.16556 32.7335C6.1144 32.579 6.02036 32.4424 5.89446 32.3394L4.03263 30.8148C3.32485 30.2357 2.9634 29.3464 3.06584 28.436C3.06713 28.4247 3.06816 28.4133 3.06902 28.4019L3.25584 25.8184C3.26762 25.6561 3.23298 25.4939 3.15616 25.3504L2.03391 23.2568C1.61281 22.4672 1.61462 21.5242 2.03871 20.734C2.0425 20.727 2.04611 20.72 2.04963 20.7129L3.22061 18.3784C3.29357 18.233 3.32373 18.0699 3.30758 17.9079L3.06996 15.523C2.9842 14.651 3.33233 13.7908 4.00685 13.2172L6.02451 11.4717C6.14752 11.3652 6.23779 11.226 6.28487 11.0703L6.97925 8.77184C7.25607 7.85545 8.00809 7.15094 8.9419 6.93314C8.96742 6.92723 8.99256 6.92007 9.01752 6.91183L11.2667 6.16522C11.4212 6.114 11.5578 6.01999 11.6608 5.89409L13.1855 4.03217C13.7646 3.32448 14.6541 2.9632 15.5643 3.06547C15.5756 3.06676 15.587 3.06779 15.5983 3.06864L18.1818 3.25547C18.3436 3.26699 18.5062 3.23261 18.6497 3.15579L20.7434 2.03362C21.5329 1.61252 22.476 1.61424 23.2662 2.03843C23.2731 2.04212 23.2801 2.04582 23.2873 2.04934L25.6217 3.22032C25.7672 3.29329 25.9304 3.32353 26.0923 3.30729L28.4771 3.06967C29.349 2.98374 30.2094 3.33205 30.7829 4.00657L32.5284 6.0242C32.6348 6.14726 32.7741 6.23749 32.9299 6.28458L35.2282 6.97897C36.1446 7.25579 36.8492 8.00787 37.0669 8.94162C37.0729 8.96714 37.08 8.99228 37.0883 9.01723L37.8349 11.2665C37.8862 11.4209 37.9801 11.5575 38.106 11.6606L39.9679 13.1852C40.6757 13.7642 41.0371 14.6534 40.9346 15.5639C40.9334 15.5752 40.9323 15.5866 40.9315 15.598L40.7447 18.1816C40.733 18.3438 40.7676 18.506 40.8443 18.6495L41.9666 20.7432C42.3877 21.5329 42.3859 22.476 41.9618 23.2661Z" fill="var(--color-icon-brand)"></path><path d="M18.2714 17.3177C18.1336 17.0272 17.8383 16.8258 17.4955 16.8258H12.9548C12.4802 16.8258 12.0955 17.2106 12.0955 17.6852V30.6932C12.0955 31.1678 12.4802 31.5525 12.9548 31.5525H17.4955C17.8517 31.5525 18.1572 31.3359 18.2875 31.0271C18.9426 31.1191 19.6174 31.3054 20.3201 31.4999C21.3764 31.7924 22.4686 32.0948 23.6033 32.0948H28.5644C30.0981 32.0948 31.3408 31.2818 31.8889 29.9197C32.1557 29.2561 32.2025 28.5674 32.0465 27.9909C32.3318 27.7343 32.573 27.415 32.7553 27.0421C33.1249 26.2866 33.1987 25.4369 32.9892 24.7213C33.3798 24.344 33.6711 23.8459 33.8233 23.2585C33.9658 22.7094 33.9633 22.1675 33.8366 21.698C34.6118 21.242 35.1338 20.4136 35.1338 19.4802C35.1338 18.748 34.8487 18.0735 34.331 17.5807C33.834 17.1075 33.172 16.8469 32.467 16.8469L25.4742 16.847C24.9429 16.1806 24.7775 15.2762 25.08 14.5482C25.7008 13.0541 25.6624 11.7894 24.9555 10.4476C24.4308 9.45165 23.0198 8.46008 21.834 8.62942C21.1172 8.73181 20.5986 9.23844 20.4465 9.98468C20.4017 10.2043 20.3894 10.4415 20.3753 10.7161C20.3402 11.3936 20.292 12.3216 19.7071 13.4421C19.3107 14.2017 19.1785 14.983 19.0618 15.6723C18.8946 16.6597 18.8136 17.1354 18.2714 17.3177ZM13.8142 18.5446H16.6361V29.8338H13.8142V18.5446ZM20.7564 15.9591C20.8565 15.3678 20.96 14.7563 21.2309 14.2375C21.9891 12.7848 22.0533 11.5455 22.0918 10.8051C22.1019 10.6078 22.1116 10.4215 22.1307 10.3279C22.1307 10.3273 22.1309 10.3266 22.1311 10.326C22.4292 10.3301 23.1628 10.7326 23.4348 11.2489C23.9056 12.1423 23.9213 12.8578 23.493 13.8889C23.1066 14.8186 23.1357 15.8973 23.5178 16.8565C23.0997 16.9147 22.7776 17.2726 22.7776 17.7067C22.7776 18.1813 23.1624 18.5661 23.637 18.5661L32.467 18.5658C32.7288 18.5658 32.97 18.6581 33.146 18.8257C33.2688 18.9425 33.4151 19.151 33.4151 19.4803C33.4151 19.9412 32.9925 20.3398 32.4923 20.3507L30.2803 20.3989C29.8059 20.4092 29.4296 20.8021 29.4399 21.2767C29.4501 21.7449 29.8327 22.1174 30.2988 22.1174C30.305 22.1174 30.3114 22.1174 30.3178 22.1172L32.16 22.0772C32.2201 22.2474 32.2513 22.5722 32.1248 22.9442C32.0171 23.2606 31.7281 23.7914 31.0011 23.7914C30.5266 23.7914 30.1417 24.1761 30.1417 24.6508C30.1417 25.1254 30.5266 25.5101 31.0011 25.5101C31.1314 25.5101 31.2593 25.502 31.3844 25.4861C31.3951 25.7293 31.345 26.0142 31.2116 26.287C31.0538 26.6095 30.7419 26.9939 30.1522 26.9939C29.6777 26.9939 29.2929 27.3786 29.2929 27.8533C29.2929 28.3279 29.6777 28.7127 30.1522 28.7127C30.2412 28.7127 30.3292 28.7087 30.4161 28.7009C30.4138 28.8658 30.3803 29.0719 30.2865 29.2975C30.1518 29.6218 29.7141 30.376 28.5646 30.376H23.6035C22.7023 30.376 21.768 30.1174 20.7789 29.8435C19.9918 29.6256 19.1847 29.4023 18.355 29.3026V19.0569C20.2898 18.7063 20.5565 17.14 20.7564 15.9591ZM22.0011 6.53125C22.4757 6.53125 22.8605 6.14651 22.8605 5.67188C22.8605 5.19724 22.4757 4.8125 22.0011 4.8125C21.5265 4.8125 21.1415 5.19724 21.1415 5.67188C21.1415 6.14651 21.5265 6.53125 22.0011 6.53125Z" fill="var(--color-icon-brand)"></path></svg>





