<svg data-test="IconAdvantageSaveMoney" viewBox="0 0 44 44" xmlns="http://www.w3.org/2000/svg"><path d="M33.7774 15.074H19.728C20.3777 14.3273 20.7725 13.3532 20.7725 12.288C20.7725 9.94389 18.8654 8.03687 16.5214 8.03687C14.1772 8.03687 12.2702 9.94389 12.2702 12.288C12.2702 13.3532 12.665 14.3273 13.3145 15.074H9.96085C7.93421 15.074 6.2854 16.7228 6.2854 18.7495V23.0864C6.2854 23.4924 6.61452 23.8215 7.02051 23.8215C7.42645 23.8215 7.75557 23.4924 7.75557 23.0864V18.7495C7.75557 17.5335 8.74487 16.5442 9.96085 16.5442H30.5431C31.7591 16.5442 32.7483 17.5335 32.7483 18.7495V22.7189H25.1035C23.0769 22.7189 21.4281 24.3677 21.4281 26.3943C21.4281 28.4209 23.0769 30.0697 25.1035 30.0697H32.7483V34.0392C32.7483 35.2551 31.7591 36.2444 30.5431 36.2444H9.96085C8.74487 36.2444 7.75557 35.2551 7.75557 34.0392V29.6964C7.75557 29.2904 7.42645 28.9614 7.02051 28.9614C6.61452 28.9614 6.2854 29.2904 6.2854 29.6964V34.0392C6.2854 36.0657 7.93421 37.7146 9.96085 37.7146H33.7774C35.8041 37.7146 37.4529 36.0657 37.4529 34.0392V18.7495C37.4529 16.7228 35.8041 15.074 33.7774 15.074ZM16.5214 9.50709C18.0548 9.50709 19.3023 10.7546 19.3023 12.288C19.3023 13.8215 18.0548 15.069 16.5214 15.069C14.988 15.069 13.7404 13.8215 13.7404 12.288C13.7404 10.7546 14.9879 9.50709 16.5214 9.50709ZM33.4814 16.5442H33.7774C34.9934 16.5442 35.9827 17.5335 35.9827 18.7495V22.7189H34.2185V18.7495C34.2185 17.9227 33.9439 17.1589 33.4814 16.5442ZM22.8982 26.3943C22.8982 25.1783 23.8875 24.1891 25.1035 24.1891H35.9827V28.5996H25.1035C23.8875 28.5996 22.8982 27.6103 22.8982 26.3943ZM33.7774 36.2444H33.4814C33.9439 35.6296 34.2185 34.866 34.2185 34.0392V30.0697H35.9827V34.0392C35.9827 35.2551 34.9934 36.2444 33.7774 36.2444Z" fill="var(--color-icon-brand)"></path><path d="M24.9153 25.6589C24.7212 25.6589 24.5316 25.7376 24.3948 25.8743C24.2581 26.011 24.1802 26.2006 24.1802 26.394C24.1802 26.5873 24.2581 26.777 24.3948 26.9137C24.5323 27.0504 24.7212 27.129 24.9153 27.129C25.1086 27.129 25.2975 27.0504 25.435 26.9137C25.5717 26.777 25.6504 26.5873 25.6504 26.394C25.6504 26.2006 25.5717 26.011 25.435 25.8743C25.2982 25.7374 25.1086 25.6589 24.9153 25.6589ZM27.217 10.1191C29.5611 10.1191 31.4681 8.2121 31.4681 5.86801C31.4681 3.52399 29.5611 1.61689 27.217 1.61689C24.8729 1.61689 22.9659 3.52391 22.9659 5.86801C22.9659 8.2121 24.8729 10.1191 27.217 10.1191ZM27.217 3.08713C28.7504 3.08713 29.9979 4.33464 29.9979 5.86809C29.9979 7.40155 28.7504 8.64902 27.217 8.64902C25.6836 8.64902 24.436 7.40155 24.436 5.86809C24.436 4.33464 25.6836 3.08713 27.217 3.08713ZM20.0375 7.24649C20.4434 7.24649 20.7725 6.91743 20.7725 6.51143V0.735083C20.7725 0.329096 20.4434 0 20.0375 0C19.6315 0 19.3024 0.329096 19.3024 0.735083V6.51143C19.3024 6.91743 19.6315 7.24649 20.0375 7.24649ZM16.5091 4.70452C16.9151 4.70452 17.2442 4.37542 17.2442 3.96943V0.735083C17.2442 0.329096 16.9151 0 16.5091 0C16.1031 0 15.774 0.329096 15.774 0.735083V3.96943C15.774 4.37542 16.1031 4.70452 16.5091 4.70452ZM7.02051 27.129C7.2138 27.129 7.40344 27.0504 7.54022 26.9137C7.67693 26.777 7.75557 26.5873 7.75557 26.394C7.75557 26.2006 7.67693 26.011 7.54022 25.8743C7.40344 25.7376 7.21455 25.6589 7.02051 25.6589C6.82717 25.6589 6.63753 25.7376 6.50081 25.8743C6.36403 26.011 6.2854 26.2006 6.2854 26.394C6.2854 26.5873 6.36403 26.777 6.50081 26.9137C6.63753 27.0504 6.8271 27.129 7.02051 27.129Z" fill="var(--color-icon-brand)"></path></svg>