<svg data-test="IconAdvantageCommerce" fill="none" height="40" viewBox="0 0 40 39" width="40" xmlns="http://www.w3.org/2000/svg"><g clip-path="url(#a)"><g fill="var(--color-icon-inverted)" mask="url(#b)"><path d="M16.19 11.235a.694.694 0 1 1-1.388 0 .694.694 0 0 1 1.388 0Z"></path><path d="M31.765 29.38a4.63 4.63 0 0 0-2.11.506v-13.51c0-.28-.098-.539-.263-.742a4.638 4.638 0 0 0-.906-4.48c.563-1.309.52-2.413-.133-3.063-.518-.515-1.319-.648-2.29-.39-.114-.977-.523-1.664-1.18-1.958-.684-.307-1.501-.134-2.339.484-.512-1.018-1.232-1.593-2.024-1.598h-.01c-1.372 0-2.473 1.694-2.777 4.146a4.63 4.63 0 0 0-1.953-.43c-1.205 0-2.355.47-3.214 1.287C8.445 2.028 6.06-.632 4.315.268c-1.941 1-.755 5.198 4.236 14.928h-.172c-.65 0-1.18.53-1.18 1.18V37.62c0 .65.53 1.18 1.18 1.18h14.054a.569.569 0 0 0 0-1.137H8.38a.043.043 0 0 1-.043-.043V16.377c0-.024.02-.043.043-.043h3.153v5.632a6.903 6.903 0 0 0 6.895 6.895 6.903 6.903 0 0 0 6.895-6.895v-5.632h3.153c.024 0 .043.02.043.043V30.7a4.645 4.645 0 0 0-1.413 3.338c0 1.307.543 2.49 1.413 3.337v.244c0 .023-.02.043-.043.043H25.11a.569.569 0 1 0 0 1.137h3.366a1.18 1.18 0 0 0 1.063-.67 4.63 4.63 0 0 0 2.227.568c2.569 0 4.659-2.09 4.659-4.66 0-2.568-2.09-4.659-4.66-4.659Zm-5.226-14.184a4.651 4.651 0 0 0-4.186-3.367 3.536 3.536 0 0 1 2.607-1.156 3.526 3.526 0 0 1 3.377 4.523h-1.798Zm-7.762 0a3.516 3.516 0 0 1 3.282-2.24c1.475 0 2.764.91 3.281 2.24h-6.563Zm1.733-9.43h.003c.412.003.871.536 1.198 1.39a.72.72 0 0 0 1.163.274c.605-.556 1.196-.805 1.543-.65.335.15.537.706.54 1.487a.723.723 0 0 0 .983.67c.744-.288 1.346-.302 1.61-.04.25.248.252.785.03 1.447a4.633 4.633 0 0 0-2.62-.808 4.68 4.68 0 0 0-4.096 2.438 4.662 4.662 0 0 0-.506.166 4.66 4.66 0 0 0-1.549-2.672c.147-2.197.991-3.701 1.701-3.701Zm-4.73 3.716c1.849 0 3.369 1.433 3.51 3.247a4.64 4.64 0 0 0-1.711 2.467h-2.127a183.222 183.222 0 0 0-2.321-4.512 3.533 3.533 0 0 1 2.649-1.202Zm-5.403-1.443c-.873.377-1.545.516-1.892.524.203-.273.69-.727 1.492-1.216.131.224.265.455.4.692Zm-.605 7.045c-2.184-4.236-3.637-7.405-4.442-9.69C4.089 1.876 4.7 1.35 4.836 1.28c.136-.07.92-.263 3.067 2.789.459.653.955 1.419 1.493 2.304-.94.576-2.58 1.767-2.057 2.783.207.401.627.545 1.126.545.816 0 1.84-.387 2.473-.667.314.564 1.37 2.528 1.533 2.837-.916.407-1.623.558-1.984.567.035-.047.081-.104.141-.17a.569.569 0 0 0-.84-.767c-.655.717-.607 1.227-.452 1.528.198.383.612.538 1.137.538.724 0 1.658-.294 2.526-.686.073.14 1.181 2.316 1.181 2.316H9.83l-.058-.112Zm14.412 6.882a5.764 5.764 0 0 1-5.757 5.757 5.764 5.764 0 0 1-5.757-5.757v-5.632h1.01v1.75a.569.569 0 0 0 1.137 0v-1.75H22.037v5.632c0 1.99-1.62 3.61-3.61 3.61-1.99 0-3.61-1.62-3.61-3.61v-1.183a.569.569 0 1 0-1.137 0v1.183a4.753 4.753 0 0 0 4.747 4.747 4.753 4.753 0 0 0 4.748-4.747v-5.632h1.01v5.632Zm7.58 15.594a3.526 3.526 0 0 1-3.52-3.521 3.526 3.526 0 0 1 3.52-3.522 3.526 3.526 0 0 1 3.522 3.522 3.526 3.526 0 0 1-3.521 3.521Z" stroke="var(--color-icon-inverted)" stroke-width=".27"></path><path d="M34.26 35.167a.694.694 0 1 1-1.388 0 .694.694 0 0 1 1.388 0Z"></path></g></g></svg>