<svg fill="none" height="40" viewBox="0 0 39 39" width="40" xmlns="http://www.w3.org/2000/svg"><g clip-path="url(#a)" fill="var(--color-icon-inverted)"><path d="M38.12 30.7c-6.313 0-12.51 2.589-17 7.104a.755.755 0 1 0 1.072 1.066c4.209-4.232 10.014-6.659 15.927-6.659a.756.756 0 1 0 0-1.511ZM22.383 29.707a.756.756 0 0 0-1.05-.203 29.835 29.835 0 0 0-8.113 8.119.756.756 0 0 0 1.255.843 28.321 28.321 0 0 1 7.705-7.71.756.756 0 0 0 .203-1.049ZM38.144 24.322c-3.38 0-6.724.578-9.941 1.716a.755.755 0 1 0 .504 1.425 28.221 28.221 0 0 1 9.437-1.629.756.756 0 1 0 0-1.512Z"></path><path d="M11.03 33.613c4.972-6.484 12.17-10.986 20.113-12.673h.005a33.69 33.69 0 0 1 6.996-.738.756.756 0 0 0 0-1.511c-2.15 0-4.29.196-6.395.581v-1.631c2.732-2.313 4.232-5.344 4.232-8.57 0-3.338-1.603-6.464-4.514-8.805a.756.756 0 0 0-.948 0c-2.91 2.34-4.514 5.467-4.514 8.804 0 3.227 1.5 6.258 4.232 8.57v1.941a35.807 35.807 0 0 0-4.238 1.245v-4.425a.753.753 0 0 0-.22-.533l-4.232-4.258a.756.756 0 0 0-.536-.223h-8.642a.756.756 0 0 0-.536.223L7.6 15.868a.753.753 0 0 0-.22.533v2.886a35.528 35.528 0 0 0-1.587-.254V16.34c2.066-1.777 3.2-4.095 3.2-6.564 0-2.58-1.237-4.995-3.482-6.8a.756.756 0 0 0-.948 0c-2.245 1.805-3.481 4.22-3.481 6.8 0 2.468 1.133 4.786 3.2 6.563v2.521a35.74 35.74 0 0 0-3.327-.156.756.756 0 1 0 0 1.512c6.044 0 11.956 1.599 17.168 4.633a35.68 35.68 0 0 0-3.57 2.773C10.33 25.47 5.637 24.334.954 24.334a.756.756 0 0 0 0 1.512c4.261 0 8.53.99 12.41 2.873a35.726 35.726 0 0 0-3.215 3.558 23.644 23.644 0 0 0-9.195-1.858.756.756 0 0 0 0 1.512c2.835 0 5.606.537 8.253 1.595a35.302 35.302 0 0 0-1.485 2.237L6.57 37.65a.756.756 0 1 0 1.29.787l1.152-1.887c.6-.984 1.25-1.93 1.941-2.84a.705.705 0 0 0 .075-.097ZM27.516 9.07c0-2.687 1.23-5.231 3.476-7.225 2.247 1.994 3.476 4.538 3.476 7.225 0 2.367-.956 4.625-2.72 6.493V9.775a.756.756 0 1 0-1.512 0v5.788c-1.765-1.868-2.72-4.126-2.72-6.493Zm-24.924.705c0-1.929.863-3.76 2.444-5.215 1.58 1.455 2.444 3.287 2.444 5.215 0 1.593-.59 3.12-1.688 4.425V9.17a.756.756 0 1 0-1.512 0v5.03c-1.097-1.304-1.688-2.832-1.688-4.425Zm20.834 5.87h-6.51l-2.73-2.746h6.51l2.73 2.746Zm-11.058-2.43 2.416 2.43H9.953l2.416-2.43Zm-3.477 3.942h6.954v4.806c-.35-.16-.703-.317-1.059-.466v-2.54a.756.756 0 0 0-.755-.755h-3.326a.756.756 0 0 0-.756.756v.899a35.98 35.98 0 0 0-1.058-.26v-2.44Zm4.384 3.743c-.6-.22-1.204-.426-1.814-.614v-.572h1.814V20.9Zm4.082 1.803v-5.546h7.13v4.256a35.467 35.467 0 0 0-4.949 2.52 35.811 35.811 0 0 0-2.181-1.23Z"></path><path d="M30.994 7.658c.199 0 .394-.08.535-.222a.761.761 0 0 0 .221-.534.76.76 0 0 0-.756-.756.76.76 0 0 0-.756.756.76.76 0 0 0 .756.756ZM24.433 27.71a.762.762 0 0 0-.222.534.76.76 0 0 0 .756.756.76.76 0 0 0 .756-.756.76.76 0 0 0-.756-.756.761.761 0 0 0-.534.222Z"></path></g><defs><clipPath id="a"><path d="M.2.1h38.7v38.7H.2z" fill="var(--color-icon-inverted)"></path></clipPath></defs></svg>