<svg data-test="IconAdvantageVegie" fill="none" height="40" viewBox="0 0 48 39" width="40" xmlns="http://www.w3.org/2000/svg"><path d="m1.5 15.889-.276-.704a.756.756 0 0 0-.335 1.148l.611-.444Zm8.399 14.888-.676.338.016.034.02.03.64-.402Zm12.598-9.926.572-.494-.033-.037-.037-.034-.502.565Zm0 14.276.403.64-.403-.64ZM1.5 15.888l-.612.445.002.002.005.007a10.416 10.416 0 0 1 .125.178c.09.131.228.332.41.608.363.551.906 1.401 1.617 2.585 1.42 2.369 3.511 6.074 6.176 11.402l1.352-.676c-2.68-5.36-4.79-9.1-6.232-11.504a73.78 73.78 0 0 0-1.651-2.64 34.7 34.7 0 0 0-.57-.835l-.007-.011-.002-.004h-.001l-.612.444Zm21.499 4.398c-5.307-4.717-10.736-6.009-14.848-6.108a21.36 21.36 0 0 0-4.979.458c-.605.13-1.085.265-1.417.368a10.641 10.641 0 0 0-.518.176l-.009.003-.002.001h-.002l.276.705.276.703h.002l.017-.007.08-.029a9.27 9.27 0 0 1 .328-.108c.294-.09.73-.213 1.287-.333 1.117-.24 2.715-.471 4.625-.425 3.81.092 8.88 1.282 13.88 5.726l1.004-1.13Zm-.1 15.48c2.333-1.469 3.73-3.806 3.836-6.57.105-2.746-1.063-5.824-3.666-8.839l-1.144.989c2.425 2.808 3.386 5.527 3.299 7.792-.087 2.248-1.206 4.137-3.13 5.35l.806 1.279ZM9.26 31.18c2.241 3.56 4.73 5.322 7.183 5.86 2.446.537 4.714-.175 6.458-1.273l-.806-1.28c-1.507.95-3.37 1.505-5.328 1.076-1.948-.427-4.134-1.863-6.227-5.189l-1.28.806Z" fill="var(--color-icon-inverted)"></path><path d="m46.547 1-.041-.755a.756.756 0 0 1 .76.992L46.546 1Zm-4.962 19.852-.742-.149.741.149ZM25.906 33.817a.756.756 0 0 1 .328-1.476l-.328 1.476ZM21.3 18.375a.756.756 0 0 1-1.378-.623l1.378.623ZM46.547 1l.718.237-.001.004-.005.016-.021.064-.083.259c-.072.23-.18.572-.315 1.023-.272.9-.661 2.23-1.127 3.94A220.564 220.564 0 0 0 42.326 21l-1.483-.297a222.095 222.095 0 0 1 3.411-14.557c.47-1.725.862-3.068 1.138-3.98A86.454 86.454 0 0 1 45.8.855l.022-.068.006-.018.002-.005V.764l.718.236Zm-4.221 20c-1.152 5.75-4.18 9.21-7.477 11.101-3.262 1.87-6.777 2.198-8.942 1.716l.328-1.476c1.773.395 4.905.144 7.861-1.551 2.921-1.675 5.681-4.767 6.747-10.087l1.483.297Zm4.221-20 .042.755h-.001a1.095 1.095 0 0 0-.043.003l-.147.01a19.5 19.5 0 0 0-.583.059c-.509.057-1.249.158-2.162.328-1.827.34-4.338.957-7.07 2.065-5.465 2.216-11.762 6.372-15.283 14.155l-1.378-.623c3.732-8.25 10.403-12.626 16.093-14.934a38.567 38.567 0 0 1 7.361-2.15 32.49 32.49 0 0 1 2.27-.344 20.991 20.991 0 0 1 .859-.079l.042.755Z" fill="var(--color-icon-inverted)"></path><path d="M38.357 9.19c-6.825 5.461-12.968 19.794-14.333 28.667-1.805-5.148-7.508-14.333-13.65-17.746" stroke="var(--color-icon-inverted)" stroke-linecap="round" stroke-linejoin="round" stroke-width="1.512"></path></svg>