<svg data-test="IconAdvantageVegan" fill="none" height="40" viewBox="0 0 47 47" width="40" xmlns="http://www.w3.org/2000/svg"><g clip-path="url(#clip0_1967_15966)"><path d="M2.98573 12.0428C0.41031 17.2547 1.17519 23.8575 5.28028 28.2431C10.7098 34.0439 16.9204 38.5013 23.55 41.6174C30.1795 38.5013 36.3901 34.0439 41.8197 28.2431C46.8648 22.8533 46.8648 14.1146 41.8197 8.72462C36.7747 3.33477 28.5951 3.33477 23.55 8.72462C19.464 4.35928 13.3217 3.52958 8.45402 6.23526" stroke="var(--color-icon-inverted)" stroke-linecap="round" stroke-linejoin="round" stroke-miterlimit="10" stroke-width="1.51172"></path><path d="M27.8762 23.1492L30.5693 16.0783C30.6243 15.9438 30.8147 15.9436 30.87 16.0781L33.5386 23.1492" stroke="var(--color-icon-inverted)" stroke-linecap="round" stroke-linejoin="round" stroke-miterlimit="10" stroke-width="1.51172"></path><path d="M28.7164 21.3882H32.7126" stroke="var(--color-icon-inverted)" stroke-linecap="round" stroke-linejoin="round" stroke-miterlimit="10" stroke-width="1.51172"></path><path d="M36.1727 23.1492V15.9907L41.0125 22.999C41.1022 23.1286 41.1983 23.0652 41.1983 22.9075V15.9773" stroke="var(--color-icon-inverted)" stroke-linecap="round" stroke-linejoin="round" stroke-miterlimit="10" stroke-width="1.51172"></path><path d="M16.7838 16.0103H13.7894V23.1167H16.7838" stroke="var(--color-icon-inverted)" stroke-linecap="round" stroke-linejoin="round" stroke-miterlimit="10" stroke-width="1.51172"></path><path d="M16.5628 19.5632H13.7893" stroke="var(--color-icon-inverted)" stroke-linecap="round" stroke-linejoin="round" stroke-miterlimit="10" stroke-width="1.51172"></path><path d="M24.806 16.5898C24.2337 16.2031 23.5438 15.9773 22.8011 15.9773C20.8206 15.9773 19.2152 17.5828 19.2152 19.5632C19.2152 21.5437 20.8206 23.1492 22.8011 23.1492C24.7816 23.1492 25.8967 21.5437 25.8967 19.5632H23.7512" stroke="var(--color-icon-inverted)" stroke-linecap="round" stroke-linejoin="round" stroke-miterlimit="10" stroke-width="1.51172"></path><path d="M5.9032 15.9773L8.35526 23.0415C8.40663 23.1861 8.61166 23.1847 8.66105 23.0394L11.0028 15.9905" stroke="var(--color-icon-inverted)" stroke-linecap="round" stroke-linejoin="round" stroke-miterlimit="10" stroke-width="1.51172"></path><path d="M28.9323 33.0656C27.4986 34.4994 25.4802 34.9521 23.7831 34.3914C23.2223 32.6943 23.6751 30.6759 25.1089 29.2422C26.5425 27.8085 28.561 27.3556 30.2581 27.9164C30.8188 29.6134 30.366 31.6319 28.9323 33.0656Z" stroke="var(--color-icon-inverted)" stroke-linecap="round" stroke-linejoin="round" stroke-miterlimit="10" stroke-width="1.51172"></path><path d="M23.7838 34.3911L25.6619 32.5131" stroke="var(--color-icon-inverted)" stroke-linecap="round" stroke-linejoin="round" stroke-miterlimit="10" stroke-width="1.51172"></path><path d="M16.842 27.9164C18.5391 27.3556 20.5575 27.8085 21.9912 29.2422C23.425 30.6759 23.8777 32.6943 23.317 34.3914C21.6199 34.9521 19.6015 34.4994 18.1678 33.0656C16.7341 31.6319 16.2813 29.6134 16.842 27.9164Z" stroke="var(--color-icon-inverted)" stroke-linecap="round" stroke-linejoin="round" stroke-miterlimit="10" stroke-width="1.51172"></path><path d="M23.3171 34.3911L21.4391 32.5131" stroke="var(--color-icon-inverted)" stroke-linecap="round" stroke-linejoin="round" stroke-miterlimit="10" stroke-width="1.51172"></path></g><defs><clipPath id="clip0_1967_15966"><rect fill="var(--color-icon-inverted)" height="45.9" transform="translate(0.599731 0.200195)" width="45.9"></rect></clipPath></defs></svg>