<svg data-test="IconAndroid" height="24" viewBox="0 0 18 22" width="24" xmlns="http://www.w3.org/2000/svg" class="u-mr--8"><path d="M11.816 1.842l.23-.36.228-.354.51-.797a.218.218 0 0 0-.057-.295.198.198 0 0 0-.283.06l-.547.853-.23.359-.233.364a6.491 6.491 0 0 0-2.435-.465c-.868 0-1.693.167-2.432.465l-.233-.364-.229-.359-.548-.853a.2.2 0 0 0-.283-.06.218.218 0 0 0-.057.295l.51.797.227.354.23.36c-1.737.842-2.91 2.437-2.91 4.262h11.453c0-1.825-1.174-3.42-2.91-4.262zM6.546 4.4a.626.626 0 0 1-.614-.639c0-.353.274-.637.614-.637.338 0 .613.284.613.637a.626.626 0 0 1-.613.64zm4.908 0a.626.626 0 0 1-.613-.639c0-.353.275-.637.613-.637.34 0 .614.284.614.637a.626.626 0 0 1-.614.64zM3.36 6.955h11.366v9.368c0 .744-.58 1.349-1.295 1.349h-.936c.031.112.05.23.05.354v2.697c0 .705-.55 1.277-1.228 1.277-.677 0-1.226-.572-1.226-1.277v-2.697c0-.124.016-.242.048-.354H7.861c.031.112.05.23.05.354v2.697c0 .705-.552 1.277-1.23 1.277-.676 0-1.226-.572-1.226-1.277v-2.697c0-.124.018-.242.049-.354h-.935c-.714 0-1.296-.605-1.296-1.35V6.956h.088zm-2.132 0c.677 0 1.227.572 1.227 1.277v5.465c0 .705-.55 1.277-1.227 1.277-.678 0-1.229-.572-1.229-1.277V8.232c0-.705.55-1.277 1.229-1.277zm15.543 0c.677 0 1.228.572 1.228 1.277v5.465c0 .705-.55 1.277-1.228 1.277-.677 0-1.228-.572-1.228-1.277V8.232c0-.705.551-1.277 1.228-1.277z" fill="var(--black)" fill-rule="evenodd"></path></svg>