<svg data-test="IconCart" fill="none" height="24" viewBox="0 0 24 24" width="24" xmlns="http://www.w3.org/2000/svg" class="icon-svg" style="margin-right: 8px;"><path d="M7.99777 18C9.09736 18 9.99703 18.9 9.99703 20C9.99703 21.1 9.09736 22 7.99777 22C6.89818 22 6.00851 21.1 6.00851 20C6.00851 18.9 6.89818 18 7.99777 18ZM17.9941 18C19.0937 18 19.9933 18.9 19.9933 20C19.9933 21.1 19.0937 22 17.9941 22C16.8945 22 16.0048 21.1 16.0048 20C16.0048 18.9 16.8945 18 17.9941 18Z" fill="var(--color-icon-inverted)"></path><path d="M4.63902 2C5.01888 2 5.37875 2.22 5.53869 2.57L9.53098 11.0001L16.5476 11.0006L20 4.5C20 4.5 20.5 3.5 21.5 4C22 4.25 22.2425 4.82 21.8726 5.48L18.2939 11.97C17.9541 12.59 17.2943 13 16.5446 13H9.09736L7.99777 15H18.9937C19.5435 15 19.9933 15.45 19.9933 16C19.9933 16.55 19.5435 17 18.9937 17H7.99777C6.47834 17 5.51869 15.37 6.24842 14.03L7.59792 11.59L3.99926 4H2.99963C2.44983 4 2 3.55 2 3C2 2.45 2.44983 2 2.99963 2H4.63902Z" fill="var(--color-icon-inverted)"></path></svg>