<svg data-test="IconEmail" height="40" viewBox="0 0 30 30" width="40" xmlns="http://www.w3.org/2000/svg" class="icon-svg"><path d="m27.55,22.035l-5.29,-4.7a0.68,0.68 0 0 0 -0.97,0.06a0.68,0.68 0 0 0 0.06,0.96l5.3,4.7c0.12,0.12 0.29,0.17 0.45,0.17c0.19,0 0.37,-0.07 0.51,-0.23a0.68,0.68 0 0 0 -0.06,-0.96zm-11.2,-2.56l10.65,-10.97a0.68,0.68 0 0 0 -0.02,-0.96a0.69,0.69 0 0 0 -0.96,0.01l-10.65,10.96c-0.24,0.24 -0.7,0.24 -0.94,0.01l-10.67,-10.96a0.69,0.69 0 0 0 -0.96,-0.02a0.69,0.69 0 0 0 -0.02,0.97l10.68,10.97a2.06,2.06 0 0 0 2.88,-0.01l0.01,0zm-7.45,-2.03a0.68,0.68 0 0 0 -0.97,-0.07l-5.48,4.65a0.68,0.68 0 1 0 0.44,1.2c0.16,0 0.32,-0.05 0.45,-0.16l5.48,-4.65a0.7,0.7 0 0 0 0.08,-0.97zm20.1,-10.23l0,15.58c0,0.94 -0.76,1.7 -1.7,1.7l-24.6,0a1.7,1.7 0 0 1 -1.7,-1.7l0,-15.58c0,-0.94 0.75,-1.71 1.7,-1.71l24.6,0c0.94,0 1.7,0.77 1.7,1.71z" fill="
#6aa20b"></path></svg>