<svg data-test="IconPhone" height="40" viewBox="0 0 28 28" width="40" xmlns="http://www.w3.org/2000/svg" class="icon-svg"><path d="M24.33 24.8c.62-.66 1.3-1.26 1.95-1.89.96-.93.97-2.06.01-2.98a377.8 377.8 0 0 0-3.42-3.3c-.94-.89-2.11-.89-3.05 0l-2.12 2.05a.86.86 0 0 1-.14.12l-.5.47c-.13.08-.26.08-.44-.01-.46-.24-.95-.44-1.4-.71a21.4 21.4 0 0 1-5.32-4.67c-.76-.9-1.44-1.86-1.91-2.94-.08-.18-.08-.31.02-.45l.5-.47a.58.58 0 0 1 .08-.09l.63-.6 1.47-1.42c.98-.95.98-2.06 0-3.01L9 3.29 7.3 1.63c-.94-.89-2.11-.89-3.05 0-.72.68-1.41 1.38-2.14 2.05a3.27 3.27 0 0 0-1.09 2.25 9.33 9.33 0 0 0 .77 4.11 24.73 24.73 0 0 0 4.6 7.38 28.24 28.24 0 0 0 9.44 7.11c1.65.78 3.37 1.37 5.23 1.47 1.28.07 2.4-.24 3.29-1.2z" fill="
#6aa20b"></path></svg>