<svg data-test="IconYoutube" height="24" viewBox="0 0 22 25" width="24" xmlns="http://www.w3.org/2000/svg"><path d="m22.98,5.34c-0.651,-1.158 -1.358,-1.371 -2.796,-1.452c-1.437,-0.098 -5.05,-0.138 -8.181,-0.138c-3.136,0 -6.752,0.04 -8.187,0.137c-1.435,0.082 -2.143,0.293 -2.8,1.453c-0.671,1.157 -1.016,3.149 -1.016,6.655l0,0.012c0,3.492 0.345,5.5 1.016,6.644c0.657,1.158 1.363,1.368 2.798,1.465c1.438,0.085 5.053,0.134 8.189,0.134c3.13,0 6.744,-0.05 8.183,-0.132c1.438,-0.098 2.145,-0.307 2.796,-1.465c0.675,-1.145 1.018,-3.153 1.018,-6.645l0,-0.008l0,-0.004c0,-3.508 -0.342,-5.5 -1.02,-6.657l0,0.001zm-13.98,11.16l0,-9l7.5,4.5l-7.5,4.5z" fill="var(--black)" fill-rule="evenodd"></path></svg>